<?xml version="1.0" encoding="UTF-8" standalone="no"?>
<!-- Created with Inkscape (http://www.inkscape.org/) -->

<svg
   xmlns:dc="http://purl.org/dc/elements/1.1/"
   xmlns:cc="http://creativecommons.org/ns#"
   xmlns:rdf="http://www.w3.org/1999/02/22-rdf-syntax-ns#"
   xmlns:svg="http://www.w3.org/2000/svg"
   xmlns="http://www.w3.org/2000/svg"
   xmlns:sodipodi="http://sodipodi.sourceforge.net/DTD/sodipodi-0.dtd"
   xmlns:inkscape="http://www.inkscape.org/namespaces/inkscape"
   width="7.9374995mm"
   height="1.0732002mm"
   viewBox="0 0 7.9374995 1.0732002"
   version="1.1"
   id="svg6465"
   inkscape:version="0.92.3 (2405546, 2018-03-11)"
   sodipodi:docname="HE-vectorized.svg">
  <defs
     id="defs6459" />
  <sodipodi:namedview
     id="base"
     pagecolor="#ffffff"
     bordercolor="#666666"
     borderopacity="1.0"
     inkscape:pageopacity="0.0"
     inkscape:pageshadow="2"
     inkscape:zoom="31.678384"
     inkscape:cx="16.293835"
     inkscape:cy="-0.37172325"
     inkscape:document-units="mm"
     inkscape:current-layer="layer1"
     showgrid="false"
     inkscape:window-width="1920"
     inkscape:window-height="1017"
     inkscape:window-x="-8"
     inkscape:window-y="-8"
     inkscape:window-maximized="1" />
  <metadata
     id="metadata6462">
    <rdf:RDF>
      <cc:Work
         rdf:about="">
        <dc:format>image/svg+xml</dc:format>
        <dc:type
           rdf:resource="http://purl.org/dc/dcmitype/StillImage" />
        <dc:title></dc:title>
      </cc:Work>
    </rdf:RDF>
  </metadata>
  <g
     inkscape:label="Layer 1"
     inkscape:groupmode="layer"
     id="layer1"
     transform="translate(131.3219,-520.29837)">
    <rect
       ry="0.50267905"
       y="520.36621"
       x="-131.3219"
       height="1.0053582"
       width="1.0053582"
       id="rect17255"
       style="display:inline;opacity:1;fill:#d20113;fill-opacity:1;fill-rule:evenodd;stroke:none;stroke-width:0.00534804;stroke-linecap:round;stroke-linejoin:round;stroke-miterlimit:4;stroke-dasharray:none;stroke-dashoffset:100.98897552;stroke-opacity:1;paint-order:normal"
       rx="0.50267905"
       inkscape:export-filename="C:\Users\adam.james\Documents\inkscape_drawings\big_preview2.png"
       inkscape:export-xdpi="96"
       inkscape:export-ydpi="96" />
    <path
       style="display:inline;fill:none;stroke:#ffffff;stroke-width:0.05062953;stroke-linecap:round;stroke-linejoin:miter;stroke-miterlimit:4;stroke-dasharray:none;stroke-opacity:1"
       d="m -131.25753,521.12911 c 0.87662,0 0.87662,0 0.87662,0"
       id="path17257"
       inkscape:connector-curvature="0" />
    <path
       inkscape:connector-curvature="0"
       id="path17261"
       d="m -131.25753,521.12911 c 0.43831,-0.75917 0.43831,-0.75917 0.43831,-0.75917"
       style="display:inline;fill:none;stroke:#ffffff;stroke-width:0.05062953;stroke-linecap:round;stroke-linejoin:miter;stroke-miterlimit:4;stroke-dasharray:none;stroke-opacity:1" />
    <path
       style="display:inline;fill:none;stroke:#ffffff;stroke-width:0.05062953;stroke-linecap:round;stroke-linejoin:miter;stroke-miterlimit:4;stroke-dasharray:none;stroke-opacity:1"
       d="m -130.38091,521.12911 c -0.43831,-0.75917 -0.43831,-0.75917 -0.43831,-0.75917"
       id="path17263"
       inkscape:connector-curvature="0" />
    <g
       aria-label="HE"
       style="font-style:normal;font-variant:normal;font-weight:600;font-stretch:normal;font-size:27.3914299px;line-height:2;font-family:'Bookman Old Style';-inkscape-font-specification:'Bookman Old Style, Semi-Bold';font-variant-ligatures:normal;font-variant-caps:normal;font-variant-numeric:normal;font-feature-settings:normal;text-align:start;letter-spacing:0px;word-spacing:0px;writing-mode:lr-tb;text-anchor:start;display:inline;fill:#ffffff;fill-opacity:1;stroke:none;stroke-width:0.71449429;stroke-miterlimit:4;stroke-dasharray:none;stroke-opacity:1"
       id="g17269"
       transform="matrix(0.01431276,0,0,0.01431276,-139.08555,523.48174)">
      <path
         d="m 578.44383,-185.06482 h 15.56818 l 2.12658,5.89826 -2.42082,0.86935 q -0.61524,-1.44447 -1.44447,-2.3272 -0.81586,-0.88273 -1.81897,-1.1636 -0.98973,-0.29424 -2.31382,-0.29424 h -2.84882 v 4.6544 h 0.93623 q 1.05661,0 1.41772,-0.14712 0.37449,-0.1605 0.53499,-0.48149 0.1605,-0.33437 0.1605,-1.31072 v -0.70887 h 2.3807 v 7.89109 h -2.3807 v -0.80248 q 0,-0.81586 -0.20062,-1.19035 -0.18725,-0.3745 -0.52162,-0.50824 -0.33436,-0.13375 -1.48459,-0.13375 h -0.84261 v 4.27991 q 0,0.68211 0.0669,0.82923 0.0669,0.14713 0.25412,0.22737 0.20062,0.0803 0.8426,0.0803 h 1.56484 q 1.75209,0 2.95582,-0.49486 1.20372,-0.50824 2.13995,-1.61834 0.94961,-1.12348 1.45785,-2.66157 l 2.44757,0.8426 -2.44757,6.92811 h -16.12994 v -2.58132 h 0.46812 q 0.93623,0 1.25722,-0.13375 0.321,-0.13375 0.45474,-0.46811 0.0669,-0.20062 0.0669,-1.13685 v -10.16479 q 0,-0.82924 -0.12038,-1.08336 -0.10699,-0.25412 -0.34774,-0.37449 -0.24074,-0.13375 -0.9496,-0.13375 h -0.82924 z"
         style="font-style:normal;font-variant:normal;font-weight:600;font-stretch:normal;font-size:27.3914299px;font-family:'Bookman Old Style';-inkscape-font-specification:'Bookman Old Style, Semi-Bold';font-variant-ligatures:normal;font-variant-caps:normal;font-variant-numeric:normal;font-feature-settings:normal;text-align:start;writing-mode:lr-tb;text-anchor:start;fill:#000dbf;fill-opacity:1;stroke:#ffffff;stroke-width:0.98102862;stroke-miterlimit:4;stroke-dasharray:none;stroke-opacity:1"
         id="path17267"
         inkscape:connector-curvature="0" />
      <path
         d="m 557.94031,-185.06477 h 9.10818 v 2.58132 h -0.8426 q -0.69549,0 -0.94961,0.14713 -0.25412,0.13374 -0.36112,0.40124 -0.10699,0.25412 -0.10699,1.12348 v 3.25005 h 6.79435 v -3.4908 q 0,-0.64199 -0.0802,-0.86936 -0.107,-0.32099 -0.36112,-0.44136 -0.25412,-0.12038 -1.12348,-0.12038 h -0.70886 v -2.58132 h 9.13494 v 2.58132 h -0.76236 q -0.77574,0 -1.02986,0.13375 -0.25412,0.12037 -0.36111,0.37449 -0.0936,0.24075 -0.0936,1.16361 v 10.11128 q 0,0.93624 0.12038,1.2171 0.13374,0.2675 0.38786,0.38787 0.2675,0.107 1.20373,0.107 h 0.53499 v 2.58132 h -9.13494 v -2.58132 h 0.60186 q 0.84261,0 1.13686,-0.13375 0.30761,-0.13375 0.41461,-0.38787 0.12037,-0.25411 0.12037,-1.19035 v -3.94554 h -6.79435 v 3.94554 q 0,0.93624 0.0802,1.16361 0.13375,0.33436 0.41462,0.44136 0.28087,0.107 1.13685,0.107 h 0.62861 v 2.58132 h -9.10818 v -2.58132 h 0.61524 q 0.77573,0 1.08335,-0.13375 0.30762,-0.13375 0.41461,-0.37449 0.12038,-0.24075 0.12038,-1.0566 v -10.13804 q 0,-0.94961 -0.12038,-1.23048 -0.10699,-0.29424 -0.34774,-0.42799 -0.24074,-0.13375 -0.93623,-0.13375 h -0.82923 z"
         style="font-style:normal;font-variant:normal;font-weight:600;font-stretch:normal;font-size:27.3914299px;font-family:'Bookman Old Style';-inkscape-font-specification:'Bookman Old Style, Semi-Bold';font-variant-ligatures:normal;font-variant-caps:normal;font-variant-numeric:normal;font-feature-settings:normal;text-align:start;writing-mode:lr-tb;text-anchor:start;fill:#000dbf;fill-opacity:1;stroke:#ffffff;stroke-width:0.98102862;stroke-miterlimit:4;stroke-dasharray:none;stroke-opacity:1"
         id="path17265"
         inkscape:connector-curvature="0" />
    </g>
    <text
       xml:space="preserve"
       style="font-style:normal;font-variant:normal;font-weight:600;font-stretch:normal;font-size:0.61173385px;line-height:2;font-family:'Bookman Old Style';-inkscape-font-specification:'Bookman Old Style, Semi-Bold';font-variant-ligatures:normal;font-variant-caps:normal;font-variant-numeric:normal;font-feature-settings:normal;text-align:start;letter-spacing:0px;word-spacing:0px;writing-mode:lr-tb;text-anchor:start;display:inline;fill:#000dbf;fill-opacity:1;stroke:none;stroke-width:0.00716875"
       x="-117.65052"
       y="575.94379"
       id="text9172-2-9-1-2-2"
       transform="scale(1.1059689,0.90418456)"><tspan
         sodipodi:role="line"
         x="-117.65052"
         y="575.94379"
         style="font-style:normal;font-variant:normal;font-weight:600;font-stretch:normal;font-size:0.61173385px;line-height:0;font-family:'Bookman Old Style';-inkscape-font-specification:'Bookman Old Style, Semi-Bold';font-variant-ligatures:normal;font-variant-caps:normal;font-variant-numeric:normal;font-feature-settings:normal;text-align:start;writing-mode:lr-tb;text-anchor:start;fill:#000dbf;fill-opacity:1;stroke-width:0.00716875"
         id="tspan9230-61-0"><tspan
   style="font-style:normal;font-variant:normal;font-weight:600;font-stretch:normal;font-size:0.74869251px;font-family:'Bookman Old Style';-inkscape-font-specification:'Bookman Old Style, Semi-Bold';font-variant-ligatures:normal;font-variant-caps:normal;font-variant-numeric:normal;font-feature-settings:normal;text-align:start;writing-mode:lr-tb;text-anchor:start;stroke-width:0.00716875"
   id="tspan11064">H</tspan>AMMAKER <tspan
   style="font-style:normal;font-variant:normal;font-weight:600;font-stretch:normal;font-size:0.73047626px;font-family:'Bookman Old Style';-inkscape-font-specification:'Bookman Old Style, Semi-Bold';font-variant-ligatures:normal;font-variant-caps:normal;font-variant-numeric:normal;font-feature-settings:normal;text-align:start;writing-mode:lr-tb;text-anchor:start;stroke-width:0.00716875"
   id="tspan11066">E</tspan>AST </tspan></text>
    <text
       xml:space="preserve"
       style="font-style:normal;font-variant:normal;font-weight:300;font-stretch:normal;font-size:0.55995572px;line-height:2;font-family:'Bookman Old Style';-inkscape-font-specification:'Bookman Old Style, Light';font-variant-ligatures:normal;font-variant-caps:normal;font-variant-numeric:normal;font-feature-settings:normal;text-align:start;letter-spacing:0px;word-spacing:0px;writing-mode:lr-tb;text-anchor:start;display:inline;fill:#000dbf;fill-opacity:1;stroke:none;stroke-width:0.00656221"
       x="-129.15355"
       y="521.27319"
       id="text9172-2-9-1-9-55-6"><tspan
         sodipodi:role="line"
         x="-129.15355"
         y="521.27319"
         style="font-style:normal;font-variant:normal;font-weight:300;font-stretch:normal;font-size:0.55995572px;line-height:0;font-family:'Bookman Old Style';-inkscape-font-specification:'Bookman Old Style, Light';font-variant-ligatures:normal;font-variant-caps:normal;font-variant-numeric:normal;font-feature-settings:normal;text-align:start;writing-mode:lr-tb;text-anchor:start;fill:#000dbf;fill-opacity:1;stroke-width:0.00656221"
         id="tspan9230-1-3-0">L  I  M  I  T  E  D</tspan></text>
    <text
       xml:space="preserve"
       style="font-style:normal;font-variant:normal;font-weight:normal;font-stretch:normal;font-size:0.29219049px;line-height:2;font-family:'Segoe UI';-inkscape-font-specification:'Segoe UI';letter-spacing:0px;word-spacing:0px;fill:#000000;fill-opacity:1;stroke:none;stroke-width:0.00342411"
       x="-126.86369"
       y="521.07996"
       id="text11046"><tspan
         sodipodi:role="line"
         id="tspan11044"
         x="-126.86369"
         y="521.07996"
         style="stroke-width:0.00342411"> </tspan></text>
    <path
       style="fill:none;fill-opacity:1;stroke:#000dbf;stroke-width:0.02082391;stroke-linecap:butt;stroke-linejoin:miter;stroke-miterlimit:4;stroke-dasharray:none;stroke-opacity:1"
       d="m -123.3844,520.8235 h -6.75106"
       id="path11048"
       inkscape:connector-curvature="0" />
  </g>
</svg>
